<svg height="512pt" viewBox="0 0 512 512" width="512pt" xmlns="http://www.w3.org/2000/svg"><path d="m512 256c0 141.386719-114.613281 256-256 256s-256-114.613281-256-256 114.613281-256 256-256 256 114.613281 256 256zm0 0" fill="#68fcdf"/><path d="m512 256c0 26.050781-3.890625 51.191406-11.128906 74.871094-32.011719 104.847656-129.542969 181.128906-244.871094 181.128906-104.558594 0-194.488281-62.699219-234.230469-152.550781-14-31.628907-21.769531-66.628907-21.769531-103.449219 0-46.21875 12.25-89.570312 33.679688-127 44.121093 77.070312 127.160156 129 222.320312 129s178.210938-51.929688 222.320312-129c21.429688 37.429688 33.679688 80.78125 33.679688 127zm0 0" fill="#10e2c4"/><path d="m30.742188 377.703125c7.15625 13.21875 15.429687 25.738281 24.71875 37.425781 46.898437 59.019532 119.300781 96.871094 200.539062 96.871094s153.640625-37.851562 200.539062-96.871094c9.289063-11.6875 17.5625-24.207031 24.71875-37.425781zm0 0" fill="#1aba9f"/><path d="m155.523438 215.664062c-12.355469 0-22.375 10.019532-22.375 22.378907 0 22.507812 18.246093 40.753906 40.757812 40.753906v-63.179687zm0 0" fill="#e3835a"/><path d="m356.476562 215.664062c12.359376 0 22.375 10.019532 22.375 22.378907 0 22.507812-18.246093 40.753906-40.753906 40.753906v-63.179687zm0 0" fill="#e3835a"/><path d="m393.289062 464.441406v7.667969c-36.828124 23.441406-80.058593 37.742187-126.480468 39.660156-3.589844.152344-7.1875.230469-10.808594.230469-50.519531 0-97.621094-14.640625-137.289062-39.890625v-7.667969c0-22.292968 5.898437-43.589844 16.46875-62.113281 3.191406-5.578125 6.800781-10.917969 10.820312-15.949219 1.648438-2.089844 3.378906-4.128906 5.179688-6.109375 7.058593-7.800781 15.128906-14.730469 24.050781-20.578125 7.789062-5.132812 16.238281-9.429687 25.238281-12.769531l5.832031-2.160156 3.078125-1.152344 12.722656-4.710937.539063-.199219 4.929687-1.828125h56.859376l4.929687 1.828125.539063.199219 12.722656 4.710937 3.078125 1.152344 5.839843 2.160156c9 3.339844 17.441407 7.636719 25.230469 12.757813 8.921875 5.859374 16.992188 12.789062 24.050781 20.589843 1.800782 1.980469 3.53125 4.019531 5.179688 6.109375 4.019531 5.03125 7.628906 10.371094 10.820312 15.949219 10.570313 18.523437 16.46875 39.820313 16.46875 62.113281zm0 0" fill="#ff3445"/><path d="m393.289062 464.441406v7.667969c-36.828124 23.441406-80.058593 37.742187-126.480468 39.660156-3.589844.152344-7.1875.230469-10.808594.230469v-175.128906h28.429688l4.929687 1.828125.539063.199219 12.722656 4.710937 3.078125 1.152344 5.839843 2.160156c9 3.339844 17.441407 7.636719 25.230469 12.757813 8.921875 5.859374 16.992188 12.789062 24.050781 20.589843 1.800782 1.980469 3.53125 4.019531 5.179688 6.109375 4.019531 5.03125 7.628906 10.371094 10.820312 15.949219 10.570313 18.523437 16.46875 39.820313 16.46875 62.113281zm0 0" fill="#dd1265"/><path d="m266.808594 336.871094v174.898437c-3.589844.152344-7.1875.230469-10.808594.230469v-175.128906zm0 0" fill="#ffe955"/><path d="m289.902344 296.308594v48.226562c0 18.722656-15.179688 33.902344-33.902344 33.902344-18.71875 0-33.898438-15.179688-33.898438-33.902344v-48.226562zm0 0" fill="#dd1265"/><path d="m289.898438 296.308594v48.230468c0 14.941407-9.667969 27.621094-23.089844 32.140626-3.386719 1.140624-7.027344 1.761718-10.808594 1.761718v-82.132812zm0 0" fill="#ba0d5c"/><path d="m266.808594 296.308594v80.371094c-3.386719 1.140624-7.027344 1.761718-10.808594 1.761718v-82.132812zm0 0" fill="#ff9f00"/><path d="m343.460938 219.871094v32.980468c0 42.917969-30.921876 78.617188-71.710938 86.027344-5.109375.941406-10.371094 1.421875-15.75 1.421875s-10.640625-.492187-15.75-1.421875c-40.78125-7.410156-71.710938-43.117187-71.710938-86.027344v-32.980468c0-4.972656.410157-9.839844 1.230469-14.582032 1.402344-8.359374 3.992188-16.320312 7.582031-23.699218 11.058594-22.679688 31.636719-39.859375 56.527344-46.359375 7.0625-1.832031 14.492188-2.820313 22.121094-2.820313 7.648438 0 15.070312.988282 22.128906 2.828125 24.890625 6.492188 45.472656 23.671875 56.519532 46.351563 3.589843 7.378906 6.179687 15.339844 7.582031 23.699218.820312 4.742188 1.230469 9.609376 1.230469 14.582032zm0 0" fill="#ffc0a4"/><path d="m343.460938 219.867188v32.980468c0 48.289063-39.148438 87.449219-87.460938 87.449219v-207.890625c7.652344 0 15.070312.992188 22.132812 2.832031 32.988282 8.597657 58.398438 35.980469 64.097657 70.046875.820312 4.742188 1.230469 9.613282 1.230469 14.582032zm0 0" fill="#ffa87a"/><path d="m343.460938 219.871094v32.980468c0 42.917969-30.921876 78.617188-71.710938 86.027344-5.109375.941406-10.371094 1.421875-15.75 1.421875s-10.640625-.492187-15.75-1.421875c-40.78125-7.410156-71.710938-43.117187-71.710938-86.027344v-32.980468c0-4.972656.410157-9.839844 1.230469-14.582032 1.402344-8.359374 3.992188-16.320312 7.582031-23.699218v71.761718c0 38.589844 27.808594 70.707032 64.488282 77.367188 4.589844.839844 9.320312 1.28125 14.160156 1.28125s9.570312-.429688 14.160156-1.28125c36.691406-6.660156 64.488282-38.769531 64.488282-77.367188v-71.761718c3.589843 7.378906 6.179687 15.339844 7.582031 23.699218.820312 4.742188 1.230469 9.609376 1.230469 14.582032zm0 0" fill="#323b5a"/><g fill="#262626"><path d="m239.332031 241.878906c0 5.945313-4.820312 10.765625-10.765625 10.765625-5.949218 0-10.769531-4.820312-10.769531-10.765625 0-5.949218 4.820313-10.769531 10.769531-10.769531 5.945313 0 10.765625 4.820313 10.765625 10.769531zm0 0"/><path d="m294.203125 241.878906c0 5.945313-4.820313 10.765625-10.765625 10.765625-5.949219 0-10.769531-4.820312-10.769531-10.765625 0-5.949218 4.820312-10.769531 10.769531-10.769531 5.945312 0 10.765625 4.820313 10.765625 10.769531zm0 0"/><path d="m281.757812 285.71875c7.609376 0 11.664063 9.132812 6.429688 14.65625-3.28125 3.464844-7.113281 6.394531-11.355469 8.65625-6.207031 3.324219-13.296875 5.199219-20.828125 5.199219-7.535156 0-14.625-1.875-20.832031-5.199219-4.242187-2.261719-8.074219-5.191406-11.355469-8.65625-5.230468-5.523438-1.179687-14.65625 6.429688-14.65625zm0 0"/></g><path d="m362.222656 211.785156c0 5.113282-3.832031 9.421875-8.910156 10.023438-4.390625.507812-8.871094.769531-13.402344.769531-33.179687 0-63.070312-14.171875-83.890625-36.820313-.007812.007813-.007812.007813-.019531.019532-20.839844 22.640625-50.71875 36.800781-83.890625 36.800781-4.476563 0-8.886719-.25-13.238281-.761719-2.589844-.289062-4.859375-1.550781-6.488282-3.378906-1.621093-1.820312-2.601562-4.21875-2.601562-6.839844 0-39.570312 21.359375-76.5 56.417969-94.832031 7.089843-3.699219 14.652343-6.636719 22.5625-8.707031 8.6875-2.261719 17.839843-3.460938 27.238281-3.460938h.019531c9.421875 0 18.5625 1.199219 27.242188 3.480469 4.519531 1.179687 8.917969 2.640625 13.179687 4.359375 20.078125 8.140625 36.519532 22.148438 47.949219 39.539062 11.421875 17.378907 17.832031 38.160157 17.832031 59.808594zm0 0" fill="#323b5a"/><path d="m256 272.386719c-4.140625 0-7.5-3.359375-7.5-7.5v-32.550781c0-4.144532 3.359375-7.5 7.5-7.5 4.144531 0 7.503906 3.355468 7.503906 7.5v32.550781c0 4.140625-3.359375 7.5-7.503906 7.5zm0 0" fill="#e3835a"/><path d="m276.832031 309.027344c-6.207031 3.324218-13.296875 5.203125-20.828125 5.203125-7.535156 0-14.625-1.878907-20.832031-5.203125 5.179687-5.609375 12.597656-9.128906 20.832031-9.128906 8.230469 0 15.644532 3.519531 20.828125 9.128906zm0 0" fill="#e32644"/><path d="m362.222656 211.785156c0 5.113282-3.832031 9.421875-8.910156 10.023438-4.390625.507812-8.871094.769531-13.402344.769531-33.179687 0-63.070312-14.171875-83.890625-36.820313-.007812.007813-.007812.007813-.019531.019532v-81.179688h.019531c9.421875 0 18.5625 1.199219 27.242188 3.480469 4.519531 1.179687 8.917969 2.640625 13.179687 4.359375 20.078125 8.140625 36.519532 22.148438 47.949219 39.539062 11.421875 17.378907 17.832031 38.160157 17.832031 59.808594zm0 0" fill="#262626"/><path d="m246.25 351.667969c0 3.90625-3.167969 7.078125-7.078125 7.078125s-7.078125-3.171875-7.078125-7.078125c0-3.910157 3.167969-7.078125 7.078125-7.078125s7.078125 3.167968 7.078125 7.078125zm0 0" fill="#ffe955"/><path d="m189.128906 375.128906-32.4375 29.1875c-6.039062 5.4375-15.335937 4.945313-20.769531-1.09375-5.4375-6.039062-4.945313-15.339844 1.09375-20.773437l32.4375-29.1875zm0 0" fill="#ffe955"/><path d="m172.292969 379.710938-15.113281 13.601562c-2.8125 2.53125-7.148438 2.300781-9.679688-.511719s-2.300781-7.148437.511719-9.679687l15.113281-13.597656zm0 0" fill="#ff9f00"/><path d="m322.871094 375.128906 32.4375 29.1875c6.039062 5.4375 15.335937 4.945313 20.769531-1.09375 5.4375-6.039062 4.945313-15.339844-1.09375-20.773437l-32.4375-29.1875zm0 0" fill="#ffe955"/><path d="m339.707031 379.710938 15.113281 13.601562c2.8125 2.53125 7.148438 2.300781 9.679688-.511719s2.300781-7.148437-.511719-9.679687l-15.113281-13.597656zm0 0" fill="#ff9f00"/><path d="m357.550781 174.128906v.421875h-203.101562v-.421875c.019531-5.097656.410156-10.109375 1.171875-15 1-6.640625 2.660156-13.070312 4.890625-19.21875 1.886719-5.210937 4.199219-10.21875 6.878906-15 17.390625-30.980468 50.550781-51.910156 88.609375-51.910156s71.21875 20.929688 88.609375 51.910156c2.679687 4.78125 4.992187 9.789063 6.878906 15 2.230469 6.148438 3.890625 12.578125 4.890625 19.21875.761719 4.890625 1.152344 9.902344 1.171875 15zm0 0" fill="#ff3445"/><path d="m357.550781 174.128906v.421875h-101.550781v-101.550781c38.058594 0 71.21875 20.929688 88.609375 51.910156 2.679687 4.78125 4.992187 9.789063 6.878906 15 2.230469 6.148438 3.890625 12.578125 4.890625 19.21875.761719 4.890625 1.152344 9.902344 1.171875 15zm0 0" fill="#dd1265"/><path d="m351.488281 139.910156h-190.976562c1.886719-5.210937 4.199219-10.21875 6.878906-15h177.21875c2.679687 4.78125 4.992187 9.789063 6.878906 15zm0 0" fill="#ffe955"/><path d="m357.550781 174.128906h-203.101562c.019531-5.097656.410156-10.109375 1.171875-15h200.757812c.761719 4.890625 1.152344 9.902344 1.171875 15zm0 0" fill="#ffe955"/><path d="m271.75 338.878906c-.980469.179688-1.960938.351563-2.949219.480469-.410156.070313-.839843.128906-1.261719.179687-.398437.0625-.808593.109376-1.210937.152344-.226563.027344-.46875.058594-.699219.078125-.398437.050781-.789062.089844-1.1875.121094-.570312.058594-1.140625.109375-1.710937.148437-.539063.050782-1.089844.082032-1.640625.109376-.308594.023437-.628906.042968-.949219.050781-.621094.03125-1.25.0625-1.878906.070312-.75.019531-1.5.03125-2.261719.03125-5.378906 0-10.640625-.492187-15.75-1.421875 2.25-6.519531 8.460938-11.207031 15.75-11.207031s13.5 4.6875 15.75 11.207031zm0 0" fill="#323b5a"/><path d="m271.75 338.878906c-.980469.179688-1.960938.351563-2.949219.480469-.410156.070313-.839843.128906-1.261719.179687-.398437.0625-.808593.109376-1.210937.152344-.226563.027344-.46875.058594-.699219.078125-.398437.050781-.789062.089844-1.1875.121094-.570312.058594-1.140625.109375-1.710937.148437-.539063.050782-1.089844.082032-1.640625.109376-.308594.023437-.628906.042968-.949219.050781-.621094.03125-1.25.0625-1.878906.070312-.75.019531-1.5.03125-2.261719.03125v-12.628906c7.289062 0 13.5 4.6875 15.75 11.207031zm0 0" fill="#262626"/></svg>